<svg id="settings-24px" xmlns="http://www.w3.org/2000/svg" width="42" height="42" viewBox="0 0 42 42">
  <path id="Path_5" data-name="Path 5" d="M0,0H42V42H0Z" fill="none"/>
  <path id="Path_6" data-name="Path 6" d="M32.327,21.309a12.649,12.649,0,0,0,.108-1.686,10.329,10.329,0,0,0-.126-1.686L35.963,15.1a.878.878,0,0,0,.216-1.094L32.723,8.051a.881.881,0,0,0-1.062-.395l-4.3,1.722a12.728,12.728,0,0,0-2.916-1.686l-.648-4.557a.87.87,0,0,0-.864-.736H16.016a.852.852,0,0,0-.846.736l-.648,4.557a13.009,13.009,0,0,0-2.916,1.686L7.3,7.657a.861.861,0,0,0-1.062.395L2.8,14.008A.814.814,0,0,0,3.018,15.1l3.655,2.835a9.947,9.947,0,0,0-.036,3.373L2.982,24.144a.878.878,0,0,0-.216,1.094l3.456,5.956a.881.881,0,0,0,1.062.395l4.3-1.722A12.728,12.728,0,0,0,14.5,31.554l.648,4.557a.884.884,0,0,0,.864.736h6.913a.839.839,0,0,0,.846-.736l.648-4.557a12.358,12.358,0,0,0,2.916-1.686l4.3,1.722a.861.861,0,0,0,1.062-.395l3.456-5.956a.829.829,0,0,0-.216-1.094ZM19.473,26.082a6.459,6.459,0,1,1,6.481-6.459A6.489,6.489,0,0,1,19.473,26.082Z" transform="translate(1.527 1.377)"/>
</svg>
